PathFileType	4	(X/Y/Z)	..\data\2014022\dynamic\2014022_C4_04.trc
DataRate	CameraRate	NumFrames	NumMarkers	Units	OrigDataRate	OrigDataStartFrame	OrigNumFrames
100.000000	100.000000	4	52	mm	100.000000	43	173
Frame#	Time	L_IAS			L_IPS			R_IPS			R_IAS			L_FTC			L_FLE			L_FME			L_FAX			L_TTC			L_FAL			L_TAM			L_FCC			L_FM1			L_FM2			L_FM5			R_FTC			R_FLE			R_FME			R_FAX			R_TTC			R_FAL			R_TAM			R_FCC			R_FM1			R_FM2			R_FM5			CV7			TV10			SXS			SJN			L_SIA			L_SRS			L_SAA			L_SAE			L_HLE			L_HME			L_UOA			L_RSP			L_UHE			L_HM2			L_HM5			R_SIA			R_SRS			R_SAA			R_SAE			R_HLE			R_HME			R_UOA			R_RSP			R_UHE			R_HM2			R_HM5			
		X1	Y1	Z1	X2	Y2	Z2	X3	Y3	Z3	X4	Y4	Z4	X5	Y5	Z5	X6	Y6	Z6	X7	Y7	Z7	X8	Y8	Z8	X9	Y9	Z9	X10	Y10	Z10	X11	Y11	Z11	X12	Y12	Z12	X13	Y13	Z13	X14	Y14	Z14	X15	Y15	Z15	X16	Y16	Z16	X17	Y17	Z17	X18	Y18	Z18	X19	Y19	Z19	X20	Y20	Z20	X21	Y21	Z21	X22	Y22	Z22	X23	Y23	Z23	X24	Y24	Z24	X25	Y25	Z25	X26	Y26	Z26	X27	Y27	Z27	X28	Y28	Z28	X29	Y29	Z29	X30	Y30	Z30	X31	Y31	Z31	X32	Y32	Z32	X33	Y33	Z33	X34	Y34	Z34	X35	Y35	Z35	X36	Y36	Z36	X37	Y37	Z37	X38	Y38	Z38	X39	Y39	Z39	X40	Y40	Z40	X41	Y41	Z41	X42	Y42	Z42	X43	Y43	Z43	X44	Y44	Z44	X45	Y45	Z45	X46	Y46	Z46	X47	Y47	Z47	X48	Y48	Z48	X49	Y49	Z49	X50	Y50	Z50	X51	Y51	Z51	X52	Y52	Z52	

44	0.43	-592.0292968750001	940.3210449218752	148.4451293945312	-786.3118896484377	955.9984130859377	212.7476959228515	-789.7337646484377	954.7557373046877	321.0759887695312	-607.2026977539064	939.2839355468752	395.3398742675782	-674.5895996093751	879.2448730468752	82.30806732177727	-726.7045288085939	458.364471435547	138.1641540527343	-773.9202270507815	463.1544494628907	268.6387329101562	-763.3761596679689	412.3714599609376	134.0537109374999	-706.9603271484376	391.2075195312501	201.2097778320312	-817.768981933594	69.63618469238283	205.4353027343749	-807.5798950195315	84.62953186035158	292.1920776367187	-860.0508422851565	24.09093666076661	252.7943572998046	-679.9966430664064	13.47548294067383	297.8150939941406	-667.2953491210939	32.75984191894532	237.9965362548828	-711.0372314453126	20.14698791503907	185.292739868164	-681.5501098632814	867.9664306640627	454.0170898437501	-504.9459533691408	481.5325622558595	407.8870849609376	-486.7263183593752	481.577362060547	272.8526306152344	-525.2117919921876	432.5957031250001	410.8677978515626	-452.762176513672	418.715057373047	368.9239196777344	-548.7844238281251	84.98982238769533	384.1170959472657	-518.0568237304689	89.01627349853517	302.0529479980469	-579.2366943359376	35.7206153869629	333.377197265625	-397.810516357422	38.80355072021485	321.4115295410156	-401.3227539062502	55.04554748535158	376.8922119140625	-442.0566406250002	37.6142807006836	418.9730224609376	-714.4096069335939	1435.077880859375	244.4404907226562	-802.1090087890627	1217.800048828125	246.0879211425781	-574.8709716796876	1137.943969726563	265.3582763671875	-603.9548950195314	1355.508666992188	255.9952850341797	-805.8757934570315	1247.401611328125	162.657730102539	-760.8742675781251	1386.39892578125	182.5800628662109	-722.1157836914064	1390.070922851563	115.0197372436523	-666.6370849609376	1372.922119140625	72.37721252441399	-633.0207519531251	1058.803100585938	12.99846267700188	-634.7733154296876	1045.94873046875	101.838508605957	-638.3620605468751	1024.182739257813	45.98476028442376	-434.4394531250001	898.1538085937502	41.97113418579097	-492.4964599609376	873.013366699219	0.4416636228560799	-373.1455078125001	839.104675292969	23.91630935668941	-463.8171386718751	794.9167480468752	5.256036758422796	-817.3355102539065	1252.875610351563	331.9119873046874	-764.9936523437501	1390.951538085938	316.6475830078124	-737.2340698242189	1392.74609375	398.090576171875	-693.1276855468751	1390.505859375	433.7885742187501	-751.3732910156252	1076.847412109375	485.5962829589844	-732.9930419921876	1062.49755859375	405.2909545898438	-758.0099487304689	1053.0234375	451.9680480957031	-642.089294433594	859.2158203125002	535.33935546875	-716.1213989257815	853.854431152344	536.9822998046875	-619.6848754882815	772.895446777344	557.453857421875	-716.1103515625002	770.7197875976565	527.3804931640625	
45	0.44	-581.6909790039064	938.4888305664065	148.6313171386718	-775.357360839844	954.1898193359377	214.4443817138672	-778.073669433594	953.1299438476565	322.5748901367187	-594.9006347656251	938.334411621094	395.5858459472657	-664.7647705078126	877.8415527343752	82.96761322021477	-721.7826538085939	458.0404052734376	138.6705474853515	-767.7608642578126	463.1923828125001	269.5042419433593	-758.8829345703126	412.468231201172	134.8074493408203	-702.2516479492189	390.4454650878907	201.4453582763672	-817.4373779296877	70.29051971435548	205.9132385253906	-806.3615722656252	85.42207336425783	292.4095458984374	-859.8784790039065	24.9259204864502	253.4214935302734	-679.9345703125001	13.40304470062256	297.9553527832031	-667.3137817382814	32.66648483276368	237.9479064941406	-711.2628784179689	20.19856452941895	185.448501586914	-668.2204589843751	867.2559814453127	455.1611633300782	-494.1520385742189	479.0444946289064	409.0316467285157	-477.9411621093752	478.4254455566407	273.4688110351562	-512.1400146484376	428.9204711914064	411.9278564453126	-439.5900878906252	418.6004028320314	369.8841552734375	-513.4598388671876	80.33200836181642	384.4630432128907	-483.6360168457033	86.66992187500001	302.3443603515625	-540.9031372070314	29.50118255615235	333.4633483886719	-360.4992065429689	43.23960113525391	320.2671203613281	-364.4948120117189	58.7785110473633	375.8083190917969	-403.7028808593752	38.73549270629884	418.1160583496094	-702.9235229492189	1433.571533203125	244.6836242675781	-790.685729980469	1216.324462890625	245.8705444335937	-563.5151977539064	1136.269165039063	265.2843933105469	-592.3711547851564	1353.971435546875	256.2405090332031	-794.3288574218752	1246.15087890625	162.2513275146484	-749.3065185546876	1385.092407226563	182.5206909179687	-710.3149414062501	1388.913696289063	115.0950393676757	-654.6647949218751	1371.8759765625	72.6846618652343	-617.8689575195314	1057.9736328125	13.74345207214348	-620.4995117187501	1045.154907226563	102.4182891845703	-622.6886596679689	1023.012573242188	46.68223571777337	-414.8289184570314	903.406433105469	46.48136901855464	-471.1395568847657	876.0940551757815	4.016714096069279	-351.0927734375001	846.5747680664065	30.27174186706539	-439.8041381835939	798.7961425781252	10.2196598052978	-805.9337158203127	1251.07861328125	331.5195922851562	-753.6329956054689	1389.243286132813	316.5736999511718	-726.1016845703126	1390.898681640625	398.0459289550781	-682.1519165039064	1388.604125976563	433.8890991210938	-741.9388427734377	1075.167114257813	484.8061828613281	-723.0929565429689	1060.795776367188	404.537353515625	-748.2950439453126	1051.389526367188	451.0517578125	-634.0191040039065	856.7932739257815	534.7994384765625	-708.0772094726565	851.7671508789065	535.774658203125	-612.2095336914065	770.3078613281252	556.820068359375	-708.317810058594	768.5905761718752	525.7271118164062	
46	0.45	-571.1731567382814	936.6301879882815	148.9218597412109	-764.2653198242189	952.3099365234377	216.1599731445312	-766.2771606445314	951.3632812500002	324.0996704101562	-582.4670410156251	937.2483520507815	395.8851623535157	-654.8110961914064	876.465270996094	83.66748809814446	-716.6483764648439	457.7368774414064	139.2002410888671	-761.3656005859376	463.2161560058595	270.4121704101562	-754.2471923828126	412.6111145019532	135.5906982421874	-697.3504638671876	389.6746215820314	201.6534729003906	-817.0906982421877	71.07126617431642	206.3893890380859	-805.0106201171877	86.36196899414064	292.5651550292968	-859.6777343750002	25.91787147521973	254.0489044189453	-679.8896484375001	13.35746288299561	298.0901184082031	-667.3641967773439	32.59141540527344	237.900405883789	-711.5229492187501	20.27553176879883	185.6056213378906	-655.0381469726564	866.2495117187502	456.2228698730469	-483.8144531250002	476.1781311035157	410.1956176757813	-469.7674255371095	474.899871826172	274.0861511230469	-499.5280151367189	425.071746826172	412.9339599609376	-427.0229797363283	418.207000732422	370.775146484375	-479.0639038085939	76.77439117431642	384.6443176269532	-450.383270263672	85.34584808349611	302.4306640625	-503.6092529296877	24.55666160583497	333.3595886230469	-324.8185119628907	48.6660499572754	318.5914001464844	-329.0740356445314	63.41419219970705	374.2122192382812	-366.5203247070314	40.83178710937501	416.8129272460938	-691.4008178710939	1431.951904296875	244.9332733154297	-779.200622558594	1214.726928710938	245.6959838867187	-552.0926513671876	1134.4853515625	265.3045654296875	-580.7320556640626	1352.33349609375	256.5083312988281	-782.714050292969	1244.789794921875	161.8965759277343	-737.6895141601564	1383.669311523438	182.4776916503906	-698.4591674804689	1387.62109375	115.1821975708007	-642.6353149414064	1370.672973632813	73.01081085205071	-602.8560791015626	1057.0400390625	14.4956970214843	-606.4297485351564	1044.188354492188	102.9641036987304	-607.1836547851564	1021.760681152344	47.40982818603509	-395.7427368164064	908.487243652344	51.01641845703121	-450.2735290527345	879.133972167969	7.590813159942574	-329.7588806152344	853.8995361328127	36.69308471679684	-416.3997192382814	802.7047119140627	15.1774406433105	-794.4567871093752	1249.14794921875	331.1295471191406	-742.2206420898439	1387.413818359375	316.5165710449218	-714.9212036132814	1388.947387695313	398.0177307128906	-671.1293945312501	1386.618041992188	434.0068664550782	-732.3837890625002	1073.435791015625	484.1055908203125	-713.0636596679689	1058.982543945313	403.8588256835938	-738.4459838867189	1049.669311523438	450.2327575683594	-625.8025512695315	854.3054199218752	534.34814453125	-699.8714599609377	849.6096801757815	534.6796264648438	-604.5737915039065	767.6823730468751	556.3130493164062	-700.369567871094	766.4061889648439	524.2390747070312	
47	0.46	-560.4735107421876	934.7783203125002	149.2878723144531	-753.0414428710939	950.380065917969	217.912841796875	-754.3407592773439	949.482360839844	325.6725463867187	-569.9058837890626	936.0157470703127	396.2297363281251	-644.7579956054689	875.1131591796877	84.43138122558587	-711.2216796875001	457.4468688964845	139.7746429443359	-754.7133789062501	463.2397766113282	271.3680114746093	-749.3961791992189	412.8020629882814	136.4054260253906	-692.2253417968751	388.8969116210939	201.8709564208984	-816.716735839844	71.98908996582033	206.8404083251953	-803.5640869140627	87.4414749145508	292.6638183593749	-859.4544677734377	27.08086585998536	254.6463928222656	-679.8572387695314	13.35154056549073	298.2075500488281	-667.4379272460939	32.54216003417969	237.8531646728515	-711.8001098632814	20.38311004638672	185.7571563720703	-641.9937744140626	864.9367675781252	457.2193908691407	-473.842742919922	473.0368957519532	411.3107299804688	-462.0759582519533	471.1360778808595	274.6578369140625	-487.3411560058595	421.1562500000001	413.8346252441407	-414.9854431152345	417.5806579589845	371.5326843261719	-445.9752807617189	74.2391815185547	384.6582031250001	-418.6207275390627	84.90698242187501	302.3167724609375	-467.7808532714845	20.79254150390625	333.0896301269531	-291.0676269531251	54.86914825439455	316.4712219238281	-295.3768615722657	68.78043365478517	372.1871032714844	-330.882049560547	43.76950454711915	415.1235961914063	-679.8361206054689	1430.24365234375	245.2024230957031	-767.6469116210939	1213.034545898438	245.5895690917968	-540.5941162109376	1132.619873046875	265.417724609375	-569.0340576171876	1350.620849609375	256.8044128417969	-771.027526855469	1243.333251953125	161.6121978759765	-726.0236816406251	1382.153686523438	182.474868774414	-686.5576782226564	1386.215698242188	115.2969894409179	-630.5640258789064	1369.339965820313	73.36166381835932	-588.0029296875001	1056.017578125	15.2595081329345	-592.5452880859376	1043.07470703125	103.488655090332	-591.8509521484376	1020.433288574219	48.16937637329096	-377.1906433105469	913.3652954101565	55.55499649047848	-429.9180908203126	882.122253417969	11.14489746093745	-309.1654052734376	861.0296630859377	43.14186096191403	-393.6369628906251	806.6231079101565	20.08068084716792	-782.8955078125002	1247.112670898438	330.7665100097656	-730.7462158203126	1385.489624023438	316.4941406249999	-703.6755371093751	1386.91796875	398.0242919921875	-660.0369873046876	1384.572998046875	434.1555786132813	-722.6731567382815	1071.675537109375	483.5074768066406	-702.8843994140626	1057.081176757813	403.2717590332031	-728.4437866210939	1047.891235351563	449.5295104980469	-617.4315185546877	851.7694091796877	533.9928588867188	-691.4957275390627	847.4058227539065	533.708251953125	-596.7786254882815	765.0249633789064	555.9256591796875	-692.267761230469	764.1914672851564	522.9259643554688	
